<svg xmlns="http://www.w3.org/2000/svg" width="24" height="24" viewBox="0 0 24 24">
    <g fill="none" fill-rule="evenodd">
        <g>
            <g>
                <g>
                    <path d="M0 24L24 24 24 0 0 0z" opacity=".098" transform="translate(-261 -808) translate(249 800) translate(12 8)"/>
                    <path stroke="#000" d="M8 15.5H4.5c-1.105 0-2-.895-2-2v-8c0-1.105.895-2 2-2h13c1.105 0 2 .895 2 2v8m-17-7h17M5 9.5h5m-5 2h5M22.5 17c0 1.933-1.567 3.5-3.5 3.5s-3.5-1.567-3.5-3.5 1.567-3.5 3.5-3.5 3.5 1.567 3.5 3.5zM11 13.5c.744 0 1.434.232 2.001.628-.908.632-1.501 1.683-1.501 2.872 0 1.189.593 2.24 1.5 2.872-.566.396-1.256.628-2 .628-1.933 0-3.5-1.567-3.5-3.5s1.567-3.5 3.5-3.5zm4 0c.744 0 1.434.232 2.001.628-.908.632-1.501 1.683-1.501 2.872 0 1.189.593 2.24 1.5 2.872-.566.396-1.256.628-2 .628-1.933 0-3.5-1.567-3.5-3.5s1.567-3.5 3.5-3.5z" transform="translate(-261 -808) translate(249 800) translate(12 8)"/>
                </g>
            </g>
        </g>
    </g>
</svg>
