<svg xmlns="http://www.w3.org/2000/svg" width="24" height="24" viewBox="0 0 24 24">
    <g fill="none" fill-rule="evenodd">
        <g>
            <g>
                <g>
                    <path d="M0 24L24 24 24 0 0 0z" transform="translate(-664 -8) translate(652) translate(12 8)"/>
                    <path stroke="#000" d="M5 6.5l6-2h2l6 2c-.254 4.681-.587 7.848-1 9.5-.5 2-3 3.5-6 3.5S6.5 18 6 16c-.413-1.652-.746-4.818-1-9.5zm0 0L3.5 7c-1.5.5-2 1.5-2 3v2c0 1.5.741 3.06 2.5 3.5l2 .5m13-9.5l1.5.5c1.5.5 2 1 2 3v2c0 1.5-.678 3.045-2.5 3.5l-2 .5M7.5 9l3.5-.5h2l3.5.5M8 14.5l3 1h2l3-1m-8-3h8" transform="translate(-664 -8) translate(652) translate(12 8)"/>
                </g>
            </g>
        </g>
    </g>
</svg>
