<svg width="120" height="120" fill="none" xmlns="http://www.w3.org/2000/svg"><path fill-rule="evenodd" clip-rule="evenodd" d="M92 26l-51.5 6c.5 3-.522 5.134-3.5 5.5-2.978.366-4-1.5-4.5-4.5l-9.432 1.096-4.668 5.947L20 52l31 26 4.5-3h9l4.5 3 31.5-26.5-2.5-21-6-4.5z" fill="#FFD7D2" fill-opacity=".6"/><path d="M18.5 40l4.5-6 9.5-1c.365 2.978 1.522 4.866 4.5 4.5 2.977-.366 3.865-2.522 3.5-5.5L92 26l6 4.5 2.5 21.5m-82-12L20 52m-1.5-12H13v6m7 6h-7v-6m7 6l31.285 26.273M38 43l.5 4.5m-1.283-10.103L37.5 39.5M39 51l.5 4.5M40 59l.5 4.5M41 67l.5 3m19.085 1.805l16.7-36.305-1.84 4c-.69 1.5-2.445 2.57-4.873 2.869-1.572.193-4.194-.39-5.922-2.369M13 46v62m94-62v-6h-7l-1-.5m8 6.5v62m0-62v6h-7L85.4 64.261M107 108L64.5 75h-9L13 108m94 0H13m55.715-29.727l10.422-8.753M28.5 33.5L58 11h4l21 16m-3.863 42.52c-3.905.325-6.978-1.92-7.57-6.745-.591-4.811 2.033-7.68 6.113-8.181 4.164-.511 7.197 1.704 7.782 6.475.145 1.179.119 2.245-.062 3.192m-6.263 5.26l6.263-5.26M58.49 37.807c4.165-.511 7.198 1.705 7.783 6.476.606 4.935-1.79 7.901-5.954 8.413-4.08.5-7.33-1.73-7.941-6.707-.59-4.812 2.033-7.68 6.113-8.182z" stroke="#F7F7F7" stroke-width="2"/></svg>